<?xml version="1.0" encoding="utf-8"?>
<!-- Generator: Adobe Illustrator 16.0.0, SVG Export Plug-In . SVG Version: 6.00 Build 0)  -->
<!DOCTYPE svg PUBLIC "-//W3C//DTD SVG 1.1//EN" "http://www.w3.org/Graphics/SVG/1.1/DTD/svg11.dtd">
<svg version="1.1" id="Layer_1" xmlns="http://www.w3.org/2000/svg" xmlns:xlink="http://www.w3.org/1999/xlink" x="0px" y="0px"
	 width="46.875px" height="40px" viewBox="0 0 46.875 40" enable-background="new 0 0 46.875 40" xml:space="preserve">
<text transform="matrix(1 0 0 1 17.814 26.6738)" display="none" font-family="'NiagaraSolid-Reg'" font-size="20">JE</text>
<g>
	<path d="M23.075,0.885l-0.152,0.012l0.043,4.102l-0.479,0.038l-0.499-3.434l0.058,3.469L21.567,5.11l-0.636-4.055l-0.149,0.012
		l-0.008-0.108l0.777-0.062l0.008,0.108L21.41,1.017l0.492,3.388l-0.051-3.532l0.479-0.038l0.512,3.495l-0.068-3.421L22.625,0.92
		l-0.009-0.108l0.45-0.036L23.075,0.885z"/>
	<path d="M25.074,4.492c-0.01,0.172-0.082,0.313-0.217,0.423s-0.3,0.16-0.494,0.148c-0.195-0.011-0.354-0.08-0.476-0.205
		S23.71,4.584,23.72,4.413l0.114-1.951c0.011-0.172,0.083-0.313,0.219-0.423c0.136-0.11,0.301-0.16,0.496-0.148
		c0.195,0.012,0.353,0.08,0.474,0.206s0.176,0.274,0.166,0.445l-0.06,1.024l-0.887-0.052l-0.069,1.19
		c-0.01,0.16,0.056,0.244,0.196,0.252c0.139,0.008,0.212-0.068,0.222-0.228l0.037-0.634l0.468,0.027L25.074,4.492z M24.667,3.429
		l0.069-1.179c0.009-0.16-0.056-0.244-0.194-0.252c-0.14-0.008-0.215,0.068-0.225,0.228l-0.068,1.179L24.667,3.429z"/>
	<path d="M26.905,4.851c-0.064,0.362-0.264,0.513-0.599,0.453c-0.142-0.025-0.25-0.083-0.323-0.174l-0.015,0.084L25.36,5.104
		l0.02-0.107l0.149,0.027l0.7-3.922L26.08,1.076l0.019-0.107l0.609,0.109l-0.205,1.147c0.1-0.059,0.221-0.076,0.363-0.051
		c0.334,0.06,0.469,0.271,0.404,0.632L26.905,4.851z M26.409,4.967l0.436-2.443c0.027-0.15-0.016-0.235-0.129-0.255
		c-0.076-0.013-0.152,0.008-0.232,0.063l-0.48,2.691c0.055,0.079,0.12,0.125,0.195,0.139C26.312,5.182,26.382,5.117,26.409,4.967z"
		/>
	<path d="M28.701,5.369c-0.107,0.352-0.323,0.477-0.648,0.378c-0.139-0.042-0.238-0.113-0.3-0.211l-0.239,0.782l0.146,0.044
		l-0.031,0.104L26.891,6.24l0.031-0.104l0.146,0.045L28.163,2.6l-0.146-0.044l0.032-0.104l0.591,0.181l-0.025,0.081
		c0.106-0.047,0.229-0.049,0.367-0.007c0.325,0.1,0.434,0.325,0.326,0.676L28.701,5.369z M28.193,5.425l0.727-2.373
		c0.044-0.146,0.012-0.235-0.099-0.269c-0.073-0.022-0.152-0.011-0.237,0.035l-0.8,2.614c0.046,0.085,0.104,0.139,0.178,0.161
		C28.072,5.626,28.149,5.571,28.193,5.425z"/>
	<path d="M30.317,6.622l-0.565-0.25l0.034-0.078c-0.111,0.034-0.231,0.022-0.362-0.036c-0.313-0.138-0.395-0.375-0.245-0.711
		l1.008-2.277L30.05,3.21l0.044-0.099l0.565,0.25l-1.134,2.561c-0.063,0.139-0.039,0.233,0.067,0.28
		c0.068,0.03,0.147,0.027,0.237-0.007l1.142-2.577l-0.137-0.061l0.044-0.099l0.565,0.25l-1.22,2.754l0.137,0.061L30.317,6.622z"/>
	<path d="M32.043,7.028c-0.188,0.316-0.428,0.387-0.72,0.213c-0.125-0.074-0.205-0.167-0.241-0.277l-0.044,0.073l-0.531-0.316
		l0.056-0.093l0.131,0.078l2.038-3.423l-0.131-0.078l0.056-0.093l0.531,0.316L32.591,4.43c0.114-0.021,0.234,0.006,0.358,0.08
		c0.292,0.174,0.344,0.418,0.156,0.734L32.043,7.028z M31.536,6.962l1.27-2.132c0.078-0.131,0.067-0.226-0.031-0.285
		c-0.065-0.039-0.146-0.046-0.239-0.023l-1.398,2.349c0.024,0.094,0.068,0.16,0.134,0.199C31.37,7.129,31.458,7.093,31.536,6.962z"
		/>
	<path d="M32.695,8.146l-0.619-0.454l0.063-0.087l0.121,0.088l2.353-3.215L34.492,4.39l0.064-0.087l0.496,0.363l-2.416,3.303
		l0.123,0.09L32.695,8.146z"/>
	<path d="M33.522,8.831l-0.586-0.496l0.07-0.083l0.113,0.097l1.875-2.217l-0.114-0.096l0.07-0.083l0.472,0.399l-1.944,2.3
		l0.114,0.096L33.522,8.831z M35.656,6.077l-0.358-0.303l0.466-0.55l0.357,0.303L35.656,6.077z"/>
	<path d="M35.128,9.592c-0.124,0.122-0.268,0.182-0.431,0.181c-0.171-0.004-0.324-0.075-0.46-0.213
		c-0.136-0.138-0.204-0.292-0.206-0.463c-0.002-0.17,0.059-0.316,0.181-0.437l0.266-0.261l0.328,0.334l-0.453,0.446
		c-0.114,0.112-0.127,0.213-0.038,0.304c0.085,0.086,0.185,0.073,0.299-0.039l0.328-0.322c0.138-0.135,0.207-0.28,0.207-0.433
		l0.002-0.692c0-0.173,0.084-0.341,0.251-0.505l0.205-0.201c0.124-0.122,0.27-0.181,0.437-0.178s0.318,0.073,0.454,0.211
		C36.633,7.461,36.7,7.614,36.7,7.781c0,0.167-0.063,0.312-0.187,0.434l-0.266,0.261l-0.326-0.333l0.453-0.445
		c0.114-0.112,0.129-0.211,0.045-0.298c-0.084-0.085-0.183-0.071-0.297,0.041l-0.295,0.289c-0.138,0.136-0.207,0.279-0.207,0.429
		l-0.002,0.692c-0.001,0.174-0.086,0.343-0.253,0.507L35.128,9.592z"/>
	<path d="M35.908,11.496l-0.38-0.488l2.21-1.72c0.121-0.094,0.146-0.186,0.074-0.277c-0.047-0.06-0.118-0.096-0.214-0.108
		l-2.224,1.731l0.094,0.12l-0.086,0.067l-0.474-0.608l0.086-0.067l0.094,0.121l3.144-2.448l-0.094-0.121l0.086-0.066l0.38,0.488
		l-0.92,0.716c0.114,0.022,0.215,0.091,0.304,0.205c0.209,0.268,0.169,0.515-0.121,0.74l-1.965,1.53l0.092,0.118L35.908,11.496z"/>
	<path d="M37.271,12.608c-0.147,0.089-0.305,0.109-0.472,0.06c-0.167-0.048-0.302-0.156-0.402-0.323
		c-0.101-0.167-0.134-0.336-0.1-0.508c0.034-0.172,0.125-0.302,0.272-0.391l1.673-1.01c0.147-0.088,0.305-0.108,0.473-0.059
		s0.303,0.158,0.403,0.325c0.101,0.167,0.134,0.336,0.099,0.507s-0.126,0.3-0.273,0.389l-0.878,0.53l-0.459-0.76l-1.021,0.616
		c-0.137,0.083-0.169,0.185-0.097,0.305c0.071,0.119,0.176,0.137,0.313,0.054l0.544-0.329l0.242,0.401L37.271,12.608z
		 M37.917,11.671l1.011-0.61c0.138-0.083,0.17-0.184,0.099-0.302c-0.073-0.12-0.178-0.139-0.314-0.057l-1.012,0.61L37.917,11.671z"
		/>
	<path d="M39.49,13.599l-0.194-0.426l0.579-0.264c0.139-0.063,0.188-0.139,0.148-0.226c-0.026-0.057-0.083-0.1-0.172-0.128
		l-2.564,1.169l0.063,0.139l-0.099,0.045l-0.319-0.701l0.099-0.045l0.063,0.139l2.642-1.204l-0.063-0.139l0.099-0.045l0.257,0.563
		L39.95,12.51c0.106,0.048,0.187,0.133,0.242,0.254c0.129,0.284,0.027,0.502-0.308,0.655L39.49,13.599z"/>
	<path d="M41.183,16.523l-0.114-0.464l1.118-0.274l-0.086-0.35l-1.767,0.434l0.129,0.523l-0.105,0.026l-0.129-0.523l-1.997,0.49
		l0.035,0.146l-0.104,0.026L37.976,15.8l0.105-0.026l0.035,0.145l3.87-0.951l-0.036-0.145l0.105-0.026l0.351,1.426L41.183,16.523z"
		/>
	<path d="M40.702,18.621l-0.059-0.465l0.63-0.08c0.151-0.02,0.221-0.077,0.209-0.171c-0.008-0.062-0.05-0.12-0.126-0.173
		l-2.795,0.356l0.019,0.151l-0.107,0.014l-0.097-0.764l0.107-0.014l0.019,0.151l2.881-0.367l-0.02-0.151l0.107-0.014l0.078,0.613
		l-0.084,0.011c0.086,0.078,0.138,0.183,0.154,0.314c0.04,0.31-0.122,0.488-0.486,0.535L40.702,18.621z"/>
	<path d="M39.181,20.606c-0.172,0.003-0.318-0.059-0.438-0.185s-0.182-0.287-0.185-0.482s0.053-0.358,0.169-0.488
		c0.116-0.131,0.26-0.198,0.432-0.201l1.954-0.031c0.172-0.003,0.318,0.06,0.438,0.187s0.182,0.288,0.185,0.483
		c0.004,0.195-0.053,0.357-0.169,0.487s-0.26,0.196-0.432,0.199L39.181,20.606z M38.909,20.142l2.481-0.041
		c0.16-0.002,0.239-0.073,0.236-0.212c-0.002-0.141-0.083-0.209-0.243-0.207l-2.481,0.041c-0.16,0.002-0.239,0.074-0.236,0.215
		C38.668,20.077,38.749,20.144,38.909,20.142z"/>
	<path d="M38.414,22.572l0.065-0.611l2.785,0.297c0.151,0.016,0.233-0.035,0.246-0.15c0.008-0.076-0.019-0.152-0.079-0.227
		l-2.803-0.299l-0.016,0.152l-0.108-0.012l0.082-0.766l0.107,0.011l-0.016,0.152l2.887,0.307l0.016-0.15l0.108,0.012L41.624,21.9
		l-0.085-0.008c0.066,0.096,0.092,0.215,0.077,0.357c-0.036,0.338-0.236,0.488-0.602,0.449l-2.477-0.264l-0.016,0.148L38.414,22.572
		z"/>
	<path d="M38.162,23.744l0.031-0.145c0.04-0.191,0.132-0.338,0.274-0.438c0.144-0.102,0.298-0.135,0.464-0.1l2.348,0.496
		l0.031-0.148l0.106,0.021l-0.031,0.15l0.852,0.18l0.109,0.5l-1.058-0.225l-0.069,0.33l-0.106-0.023l0.07-0.328l-2.605-0.551
		c-0.157-0.033-0.25,0.02-0.279,0.156l-0.03,0.146L38.162,23.744z"/>
	<path d="M39.946,25.32l0.194-0.666l0.138,0.041l-0.194,0.666L39.946,25.32z"/>
	<path d="M37.236,26.434l0.559-1.393l0.101,0.041l-0.056,0.139l3.698,1.482l0.056-0.139l0.101,0.041l-0.559,1.393l-1.169-0.469
		l0.179-0.447l1.068,0.43l0.146-0.361l-1.688-0.678L39.459,27l-0.101-0.041l0.212-0.527l-1.909-0.766l-0.145,0.361l1.068,0.43
		l-0.18,0.445L37.236,26.434z"/>
	<path d="M36.307,28.166l0.298-0.539l2.451,1.355c0.133,0.074,0.229,0.061,0.285-0.043c0.036-0.066,0.042-0.146,0.015-0.238
		l-2.466-1.365l-0.074,0.135l-0.095-0.053l0.373-0.674l0.095,0.051l-0.073,0.135l2.54,1.404l0.074-0.133l0.095,0.053l-0.3,0.541
		l-0.074-0.041c0.024,0.113,0.002,0.232-0.068,0.359c-0.164,0.297-0.407,0.357-0.729,0.18l-2.18-1.205l-0.072,0.131L36.307,28.166z"
		/>
	<path d="M35.281,29.605l0.361-0.502l0.069,0.051c-0.011-0.115,0.026-0.232,0.111-0.35c0.198-0.275,0.446-0.307,0.744-0.092
		l1.686,1.213c0.298,0.215,0.348,0.461,0.149,0.736c-0.085,0.117-0.184,0.189-0.297,0.217l0.858,0.617l0.088-0.121l0.088,0.063
		l-0.361,0.502l-3.321-2.391l-0.088,0.121L35.281,29.605z M35.8,29.217l2.218,1.598c0.096-0.016,0.166-0.055,0.21-0.115
		c0.067-0.094,0.039-0.186-0.084-0.273l-2.014-1.451c-0.124-0.09-0.219-0.086-0.286,0.006C35.799,29.043,35.784,29.121,35.8,29.217z
		"/>
	<path d="M34.426,35.961l0.12-0.094l-2.308-3.393l0.378-0.297l2.316,2.584l-1.969-2.857l0.378-0.297l2.775,3.023l0.117-0.092
		l0.066,0.086l-0.612,0.48l-0.067-0.084l0.118-0.094l-2.286-2.547l1.998,2.912l-0.378,0.297l-2.361-2.627l1.951,2.811l0.117-0.092
		l0.067,0.086l-0.354,0.277L34.426,35.961z"/>
	<path d="M30.758,34.064c-0.087-0.148-0.104-0.307-0.053-0.473c0.051-0.166,0.161-0.299,0.33-0.396
		c0.169-0.1,0.339-0.129,0.51-0.092s0.299,0.131,0.386,0.279l0.981,1.689c0.087,0.148,0.104,0.307,0.052,0.473
		c-0.052,0.168-0.163,0.299-0.332,0.398c-0.168,0.098-0.338,0.127-0.508,0.09s-0.298-0.131-0.385-0.279l-0.515-0.887l0.768-0.447
		l-0.6-1.029c-0.08-0.139-0.182-0.174-0.303-0.102c-0.12,0.068-0.14,0.174-0.06,0.311l0.319,0.551l-0.405,0.234L30.758,34.064z
		 M31.684,34.725l0.594,1.021c0.08,0.139,0.181,0.172,0.301,0.104c0.121-0.07,0.142-0.176,0.062-0.314l-0.594-1.021L31.684,34.725z"
		/>
	<path d="M29.442,34.035l0.696-0.322l0.046,0.1l-0.136,0.063l1.669,3.617l0.136-0.063l0.046,0.098l-0.559,0.258l-1.715-3.715
		l-0.139,0.063L29.442,34.035z"/>
	<path d="M28.035,35.18c-0.058-0.162-0.045-0.32,0.036-0.475c0.082-0.154,0.215-0.264,0.398-0.328
		c0.185-0.064,0.357-0.063,0.518,0.006c0.161,0.068,0.271,0.184,0.327,0.346l0.649,1.844c0.057,0.162,0.044,0.32-0.038,0.475
		s-0.216,0.264-0.399,0.328c-0.185,0.064-0.356,0.063-0.517-0.006s-0.269-0.184-0.325-0.346l-0.124-0.352l0.442-0.156l0.211,0.6
		c0.054,0.152,0.146,0.203,0.276,0.158c0.133-0.047,0.172-0.146,0.119-0.297l-0.824-2.34c-0.054-0.152-0.146-0.203-0.279-0.158
		c-0.131,0.047-0.17,0.146-0.116,0.297l0.211,0.6l-0.441,0.156L28.035,35.18z"/>
	<path d="M26.254,35.607c-0.038-0.168-0.007-0.322,0.092-0.467c0.099-0.143,0.244-0.236,0.435-0.279
		c0.19-0.041,0.361-0.02,0.514,0.068c0.151,0.086,0.246,0.213,0.283,0.381l0.428,1.908c0.038,0.166,0.007,0.322-0.094,0.467
		c-0.1,0.143-0.245,0.236-0.436,0.279c-0.19,0.041-0.361,0.02-0.512-0.068c-0.15-0.086-0.245-0.215-0.282-0.383L26.254,35.607z
		 M26.653,35.248l0.543,2.422c0.035,0.156,0.12,0.219,0.256,0.188c0.137-0.029,0.188-0.123,0.153-0.279l-0.543-2.422
		c-0.035-0.156-0.121-0.219-0.259-0.188C26.669,34.998,26.618,35.092,26.653,35.248z"/>
	<path d="M23.351,35.307l0.617-0.045l0.208,2.793c0.011,0.152,0.074,0.223,0.189,0.215c0.089-0.006,0.175-0.061,0.258-0.162
		c-0.041-0.076-0.065-0.17-0.074-0.283l-0.185-2.484l-0.149,0.012l-0.008-0.107l0.613-0.047l0.208,2.793
		c0.012,0.152,0.075,0.225,0.192,0.215c0.076-0.004,0.146-0.045,0.209-0.117l-0.21-2.811l-0.151,0.012l-0.008-0.109l0.768-0.057
		l0.009,0.107l-0.152,0.012l0.216,2.896l0.151-0.012l0.008,0.107l-0.616,0.047l-0.006-0.086c-0.082,0.082-0.195,0.129-0.339,0.141
		c-0.193,0.014-0.336-0.035-0.429-0.148c-0.109,0.129-0.252,0.199-0.428,0.211c-0.339,0.025-0.521-0.145-0.549-0.51l-0.186-2.484
		l-0.149,0.012L23.351,35.307z"/>
	<path d="M21.679,35.754c0.012-0.17,0.086-0.311,0.222-0.42c0.136-0.109,0.301-0.156,0.496-0.143s0.353,0.084,0.473,0.211
		c0.12,0.127,0.174,0.275,0.163,0.447l-0.136,1.949c-0.012,0.172-0.086,0.311-0.223,0.42c-0.137,0.109-0.302,0.156-0.498,0.143
		c-0.194-0.014-0.352-0.084-0.471-0.209c-0.119-0.127-0.173-0.277-0.161-0.449l0.071-1.021l0.886,0.061l0.083-1.189
		c0.011-0.158-0.054-0.244-0.194-0.254c-0.138-0.01-0.213,0.066-0.224,0.225l-0.044,0.635l-0.468-0.033L21.679,35.754z
		 M22.075,36.822L21.993,38c-0.011,0.16,0.053,0.244,0.191,0.254c0.14,0.01,0.216-0.064,0.227-0.225l0.082-1.178L22.075,36.822z"/>
	<path d="M19.375,34.707l0.145,0.035c0.189,0.047,0.333,0.143,0.428,0.289s0.124,0.301,0.083,0.467l-0.573,2.33l0.148,0.037
		l-0.025,0.104l-0.148-0.035l-0.208,0.844l-0.502,0.094l0.258-1.049l-0.327-0.08l0.026-0.105l0.327,0.08l0.635-2.586
		c0.038-0.156-0.011-0.25-0.147-0.283l-0.145-0.037L19.375,34.707z"/>
	<path d="M17.56,34.709c0.058-0.162,0.167-0.277,0.327-0.346s0.333-0.07,0.516-0.004c0.184,0.064,0.317,0.176,0.399,0.33
		s0.094,0.313,0.037,0.475l-0.655,1.84c-0.058,0.162-0.167,0.277-0.328,0.346c-0.161,0.068-0.333,0.07-0.518,0.004
		c-0.184-0.064-0.316-0.176-0.397-0.33c-0.081-0.152-0.092-0.311-0.035-0.473L17.56,34.709z M18.09,34.617l-0.832,2.338
		c-0.054,0.152-0.015,0.25,0.116,0.297c0.132,0.047,0.226-0.006,0.279-0.156l0.832-2.338c0.054-0.15,0.014-0.25-0.118-0.297
		C18.235,34.414,18.144,34.467,18.09,34.617z"/>
	<path d="M14.401,32.307l0.524,0.328l-1.483,2.375c-0.081,0.129-0.072,0.225,0.025,0.285c0.076,0.049,0.178,0.055,0.305,0.021
		c0.012-0.084,0.047-0.176,0.107-0.271l1.318-2.111l-0.126-0.08l0.057-0.092l0.522,0.326l-1.483,2.375
		c-0.081,0.129-0.071,0.225,0.028,0.287c0.065,0.041,0.144,0.051,0.238,0.027l1.493-2.391l-0.129-0.08l0.058-0.092l0.653,0.408
		l-0.057,0.092l-0.129-0.08l-1.538,2.463l0.129,0.08l-0.058,0.092l-0.524-0.328l0.045-0.072c-0.115,0.02-0.234-0.01-0.356-0.086
		c-0.164-0.104-0.25-0.227-0.258-0.373c-0.164,0.039-0.321,0.012-0.47-0.082c-0.289-0.18-0.335-0.426-0.141-0.738l1.319-2.111
		l-0.126-0.08L14.401,32.307z"/>
	<path d="M13.334,31.035c0.111-0.131,0.251-0.201,0.42-0.213c0.168-0.012,0.327,0.045,0.474,0.17
		c0.138,0.117,0.219,0.266,0.244,0.443c0.024,0.18-0.019,0.332-0.127,0.459l-0.07,0.084l-0.357-0.305l0.241-0.283
		c0.104-0.121,0.104-0.227,0-0.316c-0.094-0.078-0.193-0.059-0.296,0.064l-0.431,0.506c0.116,0,0.229,0.045,0.337,0.137
		c0.26,0.223,0.271,0.473,0.032,0.754l-1.574,1.852l0.114,0.096l-0.07,0.082l-0.471-0.4l1.776-2.088
		c0.099-0.117,0.104-0.213,0.014-0.289c-0.056-0.047-0.133-0.068-0.229-0.061l-1.788,2.104l0.114,0.096l-0.07,0.084l-0.471-0.4
		L13.334,31.035z"/>
	<path d="M10.829,29.389c0.286-0.229,0.536-0.211,0.749,0.053c0.09,0.113,0.133,0.227,0.129,0.344l0.637-0.512l-0.096-0.119
		l0.085-0.068l0.482,0.602l-0.085,0.068l-0.095-0.119L9.716,31.98L9.812,32.1l-0.085,0.068L9.34,31.686l0.066-0.053
		c-0.114-0.021-0.217-0.088-0.307-0.201c-0.213-0.264-0.176-0.512,0.11-0.742L10.829,29.389z M11.28,29.629l-1.935,1.553
		c-0.119,0.096-0.142,0.188-0.07,0.277c0.047,0.061,0.12,0.096,0.216,0.105l2.131-1.711c0.011-0.096-0.008-0.174-0.056-0.234
		C11.494,29.529,11.399,29.533,11.28,29.629z"/>
	<path d="M9.771,27.865c0.146-0.092,0.303-0.113,0.471-0.068c0.168,0.047,0.304,0.152,0.407,0.318s0.139,0.334,0.107,0.506
		c-0.032,0.172-0.121,0.303-0.267,0.395l-1.658,1.035c-0.146,0.09-0.303,0.113-0.471,0.066s-0.305-0.154-0.408-0.318
		c-0.103-0.166-0.139-0.334-0.106-0.506c0.032-0.172,0.122-0.303,0.267-0.393L9.771,27.865z M10.242,28.123l-2.104,1.314
		c-0.136,0.084-0.167,0.186-0.094,0.303c0.074,0.119,0.18,0.137,0.315,0.053l2.105-1.314c0.136-0.086,0.167-0.188,0.092-0.307
		C10.483,28.055,10.378,28.037,10.242,28.123z"/>
	<path d="M7.538,26.91l0.201,0.424l-0.574,0.271c-0.138,0.066-0.186,0.141-0.145,0.229c0.027,0.057,0.084,0.098,0.173,0.125
		l2.546-1.209l-0.065-0.137l0.098-0.047l0.331,0.697l-0.098,0.045l-0.065-0.137l-2.623,1.244l0.065,0.139L7.283,28.6l-0.265-0.559
		l0.077-0.035c-0.106-0.047-0.188-0.131-0.245-0.25c-0.134-0.283-0.035-0.502,0.297-0.66L7.538,26.91z"/>
	<path d="M9.063,24.793l0.05,0.141c0.066,0.184,0.065,0.355-0.004,0.518c-0.069,0.16-0.184,0.27-0.343,0.326L6.507,26.59
		l0.052,0.143L6.457,26.77l-0.052-0.145L5.586,26.92L5.23,26.553l1.018-0.365l-0.114-0.316l0.102-0.037L6.35,26.15l2.506-0.9
		c0.15-0.055,0.202-0.146,0.155-0.279L8.96,24.83L9.063,24.793z"/>
	<path d="M4.768,24.631l0.039,0.145c0.036,0.135,0.131,0.18,0.286,0.139L5.8,24.723l-0.062-0.229l0.104-0.029l0.062,0.23l2.803-0.76
		l-0.039-0.145l0.104-0.027l0.201,0.74l-0.105,0.029L8.83,24.389l-2.802,0.758l0.039,0.145L5.962,25.32l-0.039-0.145L5.47,25.297
		c-0.164,0.045-0.32,0.021-0.469-0.07c-0.148-0.094-0.248-0.234-0.299-0.422L4.664,24.66L4.768,24.631z"/>
	<path d="M7.863,22.1c0.169-0.029,0.323,0.01,0.461,0.117c0.138,0.105,0.223,0.256,0.255,0.447c0.033,0.193,0.001,0.363-0.094,0.51
		c-0.095,0.146-0.227,0.234-0.396,0.264l-1.927,0.324c-0.169,0.029-0.323-0.01-0.461-0.117c-0.138-0.107-0.223-0.258-0.256-0.451
		c-0.032-0.191-0.001-0.361,0.094-0.508c0.095-0.145,0.228-0.232,0.397-0.262L7.863,22.1z M8.201,22.518l-2.447,0.414
		c-0.158,0.025-0.225,0.107-0.202,0.244c0.023,0.139,0.114,0.195,0.272,0.168l2.447-0.414c0.158-0.025,0.225-0.109,0.202-0.248
		C8.449,22.545,8.359,22.49,8.201,22.518z"/>
	<path d="M8.352,20.864l0.056,0.765l-0.108,0.008l-0.011-0.148l-3.974,0.289l0.011,0.15l-0.108,0.008l-0.045-0.613l4.082-0.299
		l-0.011-0.152L8.352,20.864z"/>
	<path d="M4.855,19.998l0.007,0.469l-0.72,0.012l-0.008-0.469L4.855,19.998z M8.333,19.792l0.012,0.768l-0.108,0.002l-0.002-0.149
		l-2.903,0.047l0.002,0.149L5.225,20.61l-0.01-0.618l3.011-0.049l-0.002-0.149L8.333,19.792z"/>
	<path d="M7.881,18.026c0.171,0.016,0.31,0.092,0.416,0.23c0.106,0.138,0.151,0.304,0.133,0.499s-0.091,0.351-0.221,0.469
		c-0.129,0.118-0.279,0.169-0.451,0.153l-1.946-0.176c-0.171-0.016-0.31-0.093-0.416-0.232c-0.106-0.139-0.15-0.305-0.133-0.5
		c0.018-0.194,0.091-0.35,0.22-0.467s0.279-0.167,0.451-0.152L7.881,18.026z M8.102,18.517L5.63,18.293
		c-0.16-0.014-0.246,0.047-0.258,0.186c-0.013,0.14,0.061,0.217,0.22,0.232l2.472,0.223c0.159,0.015,0.246-0.048,0.258-0.188
		C8.334,18.607,8.261,18.531,8.102,18.517z"/>
</g>
<polygon points="13.563,3.887 14.014,4.801 15.022,4.948 14.292,5.659 14.465,6.664 13.563,6.189 12.661,6.664 12.833,5.659 
	12.103,4.948 13.111,4.801 "/>
<polygon points="7.322,5.914 7.773,6.827 8.782,6.974 8.052,7.686 8.225,8.69 7.322,8.216 6.42,8.69 6.593,7.686 5.863,6.974 
	6.871,6.827 "/>
<polygon points="9.158,10.97 9.609,11.884 10.618,12.03 9.888,12.742 10.061,13.747 9.158,13.272 8.256,13.747 8.429,12.742 
	7.699,12.03 8.707,11.884 "/>
</svg>
