<?xml version="1.0" standalone="no"?>
<!DOCTYPE svg PUBLIC "-//W3C//DTD SVG 20010904//EN"
 "http://www.w3.org/TR/2001/REC-SVG-20010904/DTD/svg10.dtd">
<svg version="1.0" xmlns="http://www.w3.org/2000/svg"
 width="282.000000pt" height="30.000000pt" viewBox="0 0 282.000000 30.000000"
 preserveAspectRatio="xMidYMid meet">

<g transform="translate(0.000000,30.000000) scale(0.100000,-0.100000)"
fill="#000000" stroke="none">
<path d="M1364 286 c-3 -8 3 -34 14 -58 l20 -43 1 58 c1 45 -2 57 -14 57 -9 0
-18 -6 -21 -14z"/>
<path d="M1414 275 c-9 -23 5 -83 24 -106 20 -23 122 -28 122 -6 0 24 -11 26
-58 12 -25 -8 -48 -12 -50 -10 -2 2 18 10 44 18 55 16 69 44 20 39 -27 -3 -28
-2 -15 15 13 16 12 17 -3 4 -10 -7 -16 -17 -13 -21 3 -4 -6 -15 -20 -24 -16
-10 -26 -12 -30 -5 -4 6 -4 13 -1 16 3 4 6 0 6 -8 1 -20 29 32 30 54 0 10 -4
15 -10 12 -5 -3 -10 1 -10 9 0 20 -29 21 -36 1z m33 -47 c-3 -8 -6 -5 -6 6 -1
11 2 17 5 13 3 -3 4 -12 1 -19z"/>
<path d="M1343 246 c12 -17 8 -28 -9 -22 -15 6 -62 -29 -53 -39 3 -2 20 -11
39 -19 38 -16 27 -22 -13 -7 -27 11 -58 -2 -42 -18 11 -10 53 -15 100 -12 26
2 27 3 10 11 -18 8 -19 9 -1 9 18 1 18 2 -1 19 -10 9 -13 13 -6 8 8 -5 13 -4
13 2 0 6 -5 14 -10 17 -6 4 -8 10 -5 15 3 4 -3 16 -13 27 -9 10 -14 14 -9 9z"/>
<path d="M5 150 c-3 -6 0 -12 7 -15 26 -10 983 0 983 10 0 14 -981 19 -990 5z"/>
<path d="M1825 150 c-3 -6 0 -12 7 -15 26 -10 983 0 983 10 0 14 -981 19 -990
5z"/>
<path d="M1475 130 c28 -12 75 -12 75 0 0 6 -21 10 -47 9 -36 0 -43 -3 -28 -9z"/>
<path d="M1331 99 c-18 -11 -31 -27 -31 -39 0 -23 10 -25 30 -7 12 10 12 9 1
-5 -11 -15 -11 -19 2 -24 9 -3 21 -3 27 1 5 3 10 0 10 -7 1 -8 6 -6 15 6 8 11
15 29 15 40 -1 19 -2 19 -15 -4 -17 -30 -20 -21 -4 14 7 14 16 23 20 20 5 -3
6 1 4 8 -8 20 -38 19 -74 -3z m49 8 c0 -2 -10 -12 -22 -23 l-23 -19 19 23 c18
21 26 27 26 19z"/>
<path d="M1426 104 c-8 -20 3 -82 15 -90 5 -3 9 3 10 13 0 10 3 13 6 6 6 -16
33 -17 33 -1 0 11 -49 88 -55 88 -2 0 -6 -7 -9 -16z"/>
<path d="M1459 103 c6 -10 21 -31 35 -48 19 -23 27 -27 37 -18 9 9 4 20 -23
48 -39 38 -66 48 -49 18z"/>
<path d="M1520 100 c8 -5 20 -10 25 -10 6 0 3 5 -5 10 -8 5 -19 10 -25 10 -5
0 -3 -5 5 -10z"/>
<path d="M1411 14 c0 -11 3 -14 6 -6 3 7 2 16 -1 19 -3 4 -6 -2 -5 -13z"/>
</g>
</svg>
