<?xml version="1.0" encoding="utf-8"?>
<!-- Generator: Adobe Illustrator 24.3.0, SVG Export Plug-In . SVG Version: 6.00 Build 0)  -->
<svg version="1.1" id="Layer_1" xmlns="http://www.w3.org/2000/svg" xmlns:xlink="http://www.w3.org/1999/xlink" x="0px" y="0px"
	 viewBox="0 0 345.45 201.45" style="enable-background:new 0 0 345.45 201.45;" xml:space="preserve">
<style type="text/css">
	.st0{fill:#2E2C7E;stroke:#312783;stroke-miterlimit:10;}
	.st1{fill:none;stroke:#312783;stroke-width:5;stroke-miterlimit:10;}
	.st2{fill:#312783;}
</style>
<g>
	<g>
		<path class="st0" d="M101.56,130.11H73.33V62.04h27.97v9H83.51v19.88h15.31v8.83H83.51v21.36h18.05V130.11z"/>
		<path class="st0" d="M142.02,123.89c0,4.15-2.06,6.22-6.18,6.22h-20.48c-4.09,0-6.13-2.07-6.13-6.22v-16.22h10.18v13.87h12.44
			v-13.35l-20.4-19.31c-1.48-1.42-2.22-3.23-2.22-5.44V68.31c0-4.18,2.04-6.26,6.13-6.26h20.48c4.12,0,6.18,2.06,6.18,6.18v15.22
			h-10.18V70.61h-12.44v12.31l20.4,19.22c1.48,1.39,2.22,3.23,2.22,5.52V123.89z"/>
		<path class="st0" d="M179.23,130.11h-28.23V62.04h27.97v9h-17.79v19.88h15.31v8.83h-15.31v21.36h18.05V130.11z"/>
		<path class="st0" d="M221.4,123.89c0,4.15-2.06,6.22-6.18,6.22h-22.09c-4.03,0-6.05-2.07-6.05-6.22V68.31
			c0-4.18,2.01-6.26,6.05-6.26h22.09c4.12,0,6.18,2.09,6.18,6.26V123.89z M211.22,121.37V70.79h-13.96v50.58H211.22z"/>
		<path class="st0" d="M264.95,130.11h-8.92l-16.31-42.84c0.43,2.09,0.65,3.73,0.65,4.91v37.93h-9.92V62.04h8.92l16.31,41.97
			c-0.43-2.09-0.65-3.73-0.65-4.91V62.04h9.92V130.11z"/>
	</g>
	<polyline class="st1" points="277.29,175.03 19.02,175.03 19.02,20.46 320.16,20.46 320.16,121.26 	"/>
	<path class="st2" d="M331.88,142.23c-3.25-2.16-11.86-1.9-17.74,1.74c-5.6-3.64-13.65-3.9-16.91-1.74
		c-4.68,3.1-3.74,12.75,2.1,21.54c3.36,5.06,7.6,8.73,11.5,10.34c1.07,0.69,2.34,0.97,3.73,0.91c1.39,0.07,2.66-0.22,3.73-0.91
		c3.89-1.62,8.14-5.29,11.5-10.34C335.62,154.98,336.56,145.34,331.88,142.23z"/>
</g>
</svg>
